<?xml version="1.0" encoding="UTF-8"?>
<!DOCTYPE svg PUBLIC "-//W3C//DTD SVG 1.1//EN" "http://www.w3.org/Graphics/SVG/1.1/DTD/svg11.dtd">
<!-- Creator: CorelDRAW -->
<svg xmlns="http://www.w3.org/2000/svg" xml:space="preserve" width="13mm" height="15mm" version="1.1" style="shape-rendering:geometricPrecision; text-rendering:geometricPrecision; image-rendering:optimizeQuality; fill-rule:evenodd; clip-rule:evenodd"
viewBox="0 0 1300 1500"
 xmlns:xlink="http://www.w3.org/1999/xlink"
 xmlns:xodm="http://www.corel.com/coreldraw/odm/2003">
 <defs>
  <style type="text/css">
   <![CDATA[
    .str0 {stroke:#84B2E0;stroke-width:26.46;stroke-miterlimit:22.9256}
    .fil1 {fill:#84B2E0;fill-rule:nonzero}
    .fil0 {fill:white;fill-rule:nonzero}
   ]]>
  </style>
 </defs>
 <g id="Слой_x0020_1">
  <metadata id="CorelCorpID_0Corel-Layer"/>
  <path class="fil0" d="M36.29 551.99l0 454.82c0,73.82 39.42,142.08 103.45,179.12l393.96 227.54c64.03,37.04 142.88,37.04 206.64,0l393.96 -227.54c64.03,-37.04 103.45,-105.04 103.45,-179.12l0.01 -454.82c0,-73.82 -39.42,-142.08 -103.45,-179.12l-393.96 -227.54c-64.03,-37.04 -142.88,-37.04 -206.64,0l-393.96 227.54c-64.04,37.04 -103.46,105.3 -103.46,179.12z"/>
  <path class="fil1 str0" d="M848.73 696.72c0,-9 -0.79,-18.26 -2.38,-27.25 -7.67,-42.6 -30.43,-75.67 -65.88,-100.28 -2.38,-1.59 -3.44,-3.44 -3.44,-6.35 0,-30.69 0,-61.12 0,-91.81 0,-1.32 0,-2.91 0.26,-4.5 2.38,0 3.97,0 5.82,0 13.76,-0.79 23.55,-13.23 20.9,-26.72 -2.38,-11.91 -11.38,-18.79 -25.14,-18.79 -94.72,0 -189.44,0 -284.16,0 -2.65,0 -5.29,0 -7.94,0.53 -10.85,2.65 -18.26,12.7 -17.2,23.55 1.06,11.38 10.32,20.64 21.43,21.43 1.85,0 3.7,0.26 5.82,0.26 0,1.06 0.26,1.59 0.26,2.12 0,31.75 0,63.5 0,95.25 0,1.59 -1.32,3.44 -2.65,4.23 -12.44,7.94 -23.55,17.46 -33.07,28.84 -21.7,25.66 -33.87,55.03 -35.45,88.64 -0.79,19.05 -0.53,38.1 -0.53,57.15 0,78.58 0,156.9 0,235.48 0,39.16 21.7,70.11 58.21,83.87 2.65,1.06 2.65,2.65 2.65,4.76 0,21.96 0,43.66 0,65.62l0 5.03 301.63 0 0 -5.03c0,-21.96 0,-43.92 0,-65.88 0,-2.12 0.26,-3.44 2.65,-4.5 36.78,-13.23 57.94,-43.92 58.21,-83.61 0,-94.18 0,-188.11 0,-282.04zm-306.13 -229.66l0.53 0 0 0 70.91 0 0 0 46.3 0 0 -0.26 70.91 0 0 81.23c-1.06,-0.26 -2.38,-0.26 -3.44,-0.53l-185.21 0 0 -80.44zm199.24 623.1l-209.03 0 0 -23.81 209.03 -0.01 0 23.82zm59.79 -100.28c-3.97,17.99 -20.37,30.69 -39.42,30.69 -35.98,0 -71.7,0 -107.69,0 -47.63,0 -94.99,0 -142.61,0 -19.31,0 -35.72,-12.7 -39.69,-30.69 -0.79,-3.7 -1.06,-7.94 -1.06,-11.91 0,-47.36 0,-94.72 0,-142.08 0,-46.57 0,-92.87 0,-139.44 0,-48.42 29.9,-88.37 76.46,-101.34 9,-2.65 18.79,-3.44 28.31,-3.7 40.22,-0.26 80.17,-0.26 120.39,-0.26 51.06,0 92.08,33.07 102.92,83.08 1.59,7.41 2.12,15.08 2.12,22.49 0.26,92.87 0,185.74 0,278.61 0.01,5.02 1.33,10.05 0.27,14.55z"/>
 </g>
</svg>
