<?xml version="1.0" encoding="UTF-8"?>
<!DOCTYPE svg PUBLIC "-//W3C//DTD SVG 1.1//EN" "http://www.w3.org/Graphics/SVG/1.1/DTD/svg11.dtd">
<!-- Creator: CorelDRAW -->
<svg xmlns="http://www.w3.org/2000/svg" xml:space="preserve" width="10mm" height="10mm" version="1.1" style="shape-rendering:geometricPrecision; text-rendering:geometricPrecision; image-rendering:optimizeQuality; fill-rule:evenodd; clip-rule:evenodd"
viewBox="0 0 1000 1000"
 xmlns:xlink="http://www.w3.org/1999/xlink"
 xmlns:xodm="http://www.corel.com/coreldraw/odm/2003">
 <defs>
  <style type="text/css">
   <![CDATA[
    .str0 {stroke:#85B6FF;stroke-width:132.29;stroke-linecap:round;stroke-linejoin:round;stroke-miterlimit:22.9256}
    .fil1 {fill:none;fill-rule:nonzero}
    .fil0 {fill:white}
   ]]>
  </style>
   <clipPath id="id0" style="clip-rule:nonzero">
    <path d="M49.91 994.98l887.41 0 0 -969.96 -887.41 0 0 969.96z"/>
   </clipPath>
 </defs>
 <g id="Слой_x0020_1">
  <metadata id="CorelCorpID_0Corel-Layer"/>
  <g>
  </g>
  <g style="clip-path:url(#id0)">
   <g id="_1585144625584">
    <path class="fil0" d="M413.26 44.08c44.37,-25.62 116.28,-25.64 160.7,0l283 163.38c44.38,25.62 80.36,87.88 80.36,139.16l0 326.76c0,51.24 -35.94,113.52 -80.36,139.17l-283 163.37c-44.38,25.62 -116.29,25.65 -160.7,0l-283.01 -163.37c-44.37,-25.62 -80.35,-87.88 -80.35,-139.17l0 -326.76c0,-51.24 35.94,-113.52 80.35,-139.16l283.01 -163.38z"/>
    <path class="fil1 str0" d="M492.37 701.74c-41.05,0 -80.42,-17.4 -109.45,-48.36 -29.03,-30.96 -45.34,-72.95 -45.34,-116.74 0,-72.27 52.44,-130.08 98.54,-183.05l56.25 -64.6 56.24 64.6c46.1,52.99 98.54,110.8 98.54,183.05 0,43.79 -16.31,85.78 -45.34,116.74 -29.02,30.96 -68.39,48.36 -109.44,48.36z"/>
   </g>
  </g>
  <polygon class="fil1" points="49.91,994.98 937.32,994.98 937.32,25.02 49.91,25.02 "/>
 </g>
</svg>
