<?xml version="1.0" encoding="UTF-8"?>
<!DOCTYPE svg PUBLIC "-//W3C//DTD SVG 1.1//EN" "http://www.w3.org/Graphics/SVG/1.1/DTD/svg11.dtd">
<!-- Creator: CorelDRAW -->
<svg xmlns="http://www.w3.org/2000/svg" xml:space="preserve" width="11mm" height="11mm" version="1.1" style="shape-rendering:geometricPrecision; text-rendering:geometricPrecision; image-rendering:optimizeQuality; fill-rule:evenodd; clip-rule:evenodd"
viewBox="0 0 1100 1100"
 xmlns:xlink="http://www.w3.org/1999/xlink"
 xmlns:xodm="http://www.corel.com/coreldraw/odm/2003">
 <defs>
  <style type="text/css">
   <![CDATA[
    .fil2 {fill:none;fill-rule:nonzero}
    .fil0 {fill:white}
    .fil1 {fill:#85B6FF;fill-rule:nonzero}
   ]]>
  </style>
   <clipPath id="id0" style="clip-rule:nonzero">
    <path d="M106.31 1034.98l887.42 0 0 -969.96 -887.42 0 0 969.96z"/>
   </clipPath>
 </defs>
 <g id="Слой_x0020_1">
  <metadata id="CorelCorpID_0Corel-Layer"/>
  <g>
  </g>
  <g style="clip-path:url(#id0)">
   <g id="_1549922515120">
    <path class="fil0" d="M469.66 84.08c44.38,-25.62 116.29,-25.64 160.7,0l283.01 163.38c44.37,25.62 80.35,87.88 80.35,139.16l0 326.76c0,51.24 -35.94,113.52 -80.35,139.17l-283.01 163.37c-44.37,25.62 -116.28,25.65 -160.7,0l-283 -163.37c-44.38,-25.62 -80.35,-87.88 -80.35,-139.17l0 -326.76c0,-51.24 35.93,-113.52 80.35,-139.16l283 -163.38z"/>
    <path class="fil1" d="M428.34 395.2c-33.1,0 -60.19,27.09 -60.19,60.2l0 180.57c0,15.97 6.34,31.28 17.63,42.57 11.29,11.28 26.6,17.63 42.56,17.63l90.29 0 0 -60.2 -90.29 0 0 -180.57 90.29 0 0 -60.2 -90.29 0zm180.58 0c-33.1,0 -60.19,27.09 -60.19,60.2l0 180.57c0,15.97 6.34,31.28 17.63,42.57 11.29,11.28 26.6,17.63 42.56,17.63l60.2 0c33.4,0 60.19,-26.79 60.19,-60.2l0 -180.57c0,-15.97 -6.34,-31.28 -17.63,-42.57 -11.29,-11.29 -26.6,-17.63 -42.56,-17.63l-60.2 0zm0 60.2l60.2 0 0 180.57 -60.2 0 0 -180.57z"/>
   </g>
  </g>
  <polygon class="fil2" points="106.31,1034.98 993.73,1034.98 993.73,65.02 106.31,65.02 "/>
 </g>
</svg>
