<?xml version="1.0" encoding="UTF-8"?>
<!DOCTYPE svg PUBLIC "-//W3C//DTD SVG 1.1//EN" "http://www.w3.org/Graphics/SVG/1.1/DTD/svg11.dtd">
<!-- Creator: CorelDRAW -->
<svg xmlns="http://www.w3.org/2000/svg"
     xml:space="preserve"
     width="67.7332mm"
     height="21.8722mm"
     version="1.1"
     style="shape-rendering:geometricPrecision; text-rendering:geometricPrecision; image-rendering:optimizeQuality; fill-rule:evenodd; clip-rule:evenodd"
     viewBox="0 0 6773.32 2187.22"
     xmlns:xlink="http://www.w3.org/1999/xlink"
     xmlns:xodm="http://www.corel.com/coreldraw/odm/2003">
    <defs>
        <style type="text/css">
            <![CDATA[
                .fil1 {fill:#0C68A9}
                .fil0 {fill:#66807F}
            ]]>
        </style>
    </defs>
    <polygon class="fil0"
             points="381.14,970.78 857.69,970.78 711.17,518.02 766.42,499.27 939.74,1029.94 381.14,1029.94 "/>
    <polygon class="fil0"
             points="385.53,1186.04 862.08,1186.04 715.56,1638.79 770.81,1657.54 944.13,1126.87 385.53,1126.87 "/>
    <polygon class="fil0"
             points="1587.43,796.58 1203.88,1079.41 1590.51,1356.85 1557.17,1404.73 1102.72,1080.49 1552.31,748.96 "/>
    <polygon class="fil0"
             points="1456.14,625.94 1072.59,908.77 921.81,457.41 866.22,475.11 1041.67,1005.08 1491.26,673.56 "/>
    <polygon class="fil0"
             points="912.39,1702.93 1071.48,1253.71 1449.35,1542.97 1485.47,1497.15 1043.11,1156.62 856.62,1683.17 "/>
    <polygon class="fil1"
             points="3047.71,795.89 2973.42,870.18 2973.42,1601.53 2774.34,1601.53 2774.34,870.18 2772.78,871.74 2698.45,797.42 2699.97,795.89 2298.33,795.89 2298.33,618.51 2774.34,618.51 2973.42,618.51 3475.91,618.51 3475.91,795.89 "/>
    <polygon class="fil1"
             points="3891.37,784.68 3821.47,854.59 3821.47,1601.53 3602.91,1601.53 3602.91,784.68 3602.91,764.66 3749.06,618.51 3821.47,618.51 4447.15,618.51 4447.15,784.68 "/>
    <polygon class="fil1"
             points="5253.66,1601.53 5554.34,1601.53 5051.31,1105.83 5534.47,618.51 5235.74,618.51 4799.56,1057.44 4799.56,618.51 4728.75,618.51 4580.49,766.76 4580.49,1601.53 4799.56,1601.53 4799.56,1170.4 "/>
    <path class="fil1"
          d="M5912.46 783.05l505.68 0c57.49,0 104.07,46.58 104.07,104.08l0 443.75c0,57.5 -46.58,104.08 -104.07,104.08l-505.68 0c-57.5,0 -104.08,-46.58 -104.08,-104.08l0 -443.75c0,-57.5 46.58,-104.08 104.08,-104.08zm-152.83 -164.54l814.93 0c95.98,3.01 172.88,81.8 172.88,178.54l0.44 0 0 559.59c-9.18,129.83 -116.88,233.87 -252.4,244.89l-670.88 0c-133.82,-12.11 -239.13,-129.06 -240.84,-272.17l0 -545.98c6.97,-91.49 82.89,-163.71 175.87,-164.87z"/>
    <path class="fil1"
          d="M25.42 1633.33c494.85,289.87 542.01,44.94 695.87,52.32 -14.15,-4.58 -52.19,-17.73 -66.34,-22.31 20.65,-64.32 29.67,-92.51 50.3,-156.79 -112.73,62.97 -192.83,54.72 -290.94,18.23 159.39,-74.33 76.58,-192.08 202.62,-274.66 -81.63,0.7 -163.27,1.44 -244.9,2.15 0.71,-16.59 1.45,-33.14 2.16,-49.72 -344.12,131.23 -41.51,502.45 -348.77,430.78z"/>
    <path class="fil1"
          d="M1275.96 2188.29c329.61,-381.37 241.04,-524.86 200.7,-640.39 -8.81,11.98 -17.64,23.95 -26.45,35.93 -54.53,-39.86 -109.11,-79.72 -163.63,-119.58 91.23,137.27 61,287.87 -22.4,352.13 -3.74,-139.86 -200.54,-170.74 -209.84,-381.44 -25.08,77.72 -74.02,230.11 -99.05,307.82 -15.52,-5.9 -7.75,-2.97 -23.27,-8.87 4.9,319.37 428.52,239.59 343.94,454.4z"/>
    <path class="fil1"
          d="M2179.32 1205.69c-283.32,-506.13 -482.32,-388.82 -538.54,-422.65 8.41,12.27 16.79,24.56 25.2,36.83 -55.62,38.33 -111.27,76.73 -166.86,115.04 158.3,-31.99 270.19,53.21 303.38,153.12 -183.59,-55.87 -170.01,113.75 -404.73,65.77 65.05,49.3 189.96,136.43 255.04,185.71 -10.69,12.7 -21.37,25.36 -32.06,38.06 421.28,5.99 333.28,-356.65 558.57,-171.88z"/>
    <path class="fil1"
          d="M1448.79 13.12c-532.41,121.77 -476.5,371.37 -545.53,402.02 14.07,-4.84 28.17,-9.57 42.25,-14.37 21.95,63.84 43.98,127.77 65.94,191.64 52.66,-117.88 129.65,-247.29 234.8,-252.4 -47.37,97.16 52.84,219.9 1.36,361.49 64.96,-49.43 129.91,-98.9 194.87,-148.34 9.36,13.71 18.68,27.4 28.04,41.12 195.56,-340.18 -213.85,-453.22 -21.73,-581.16z"/>
</svg>
