<?xml version="1.0" encoding="UTF-8"?>
<!DOCTYPE svg PUBLIC "-//W3C//DTD SVG 1.1//EN" "http://www.w3.org/Graphics/SVG/1.1/DTD/svg11.dtd">
<!-- Creator: CorelDRAW -->
<svg xmlns="http://www.w3.org/2000/svg" xml:space="preserve" width="21.8722mm" height="21.8722mm" version="1.1" style="shape-rendering:geometricPrecision; text-rendering:geometricPrecision; image-rendering:optimizeQuality; fill-rule:evenodd; clip-rule:evenodd"
viewBox="0 0 2187.22 2187.22"
 xmlns:xlink="http://www.w3.org/1999/xlink"
 xmlns:xodm="http://www.corel.com/coreldraw/odm/2003">
 <defs>
  <style type="text/css">
   <![CDATA[
    .fil1 {fill:#0C68A9}
    .fil0 {fill:#66807F}
   ]]>
  </style>
 </defs>
 <g id="Слой_x0020_1">
  <metadata id="CorelCorpID_0Corel-Layer"/>
  <g id="_2725735536000">
   <polygon class="fil0" points="365.67,974.8 842.22,974.8 695.7,522.04 750.95,503.29 924.27,1033.96 365.67,1033.96 "/>
   <polygon class="fil0" points="370.06,1190.06 846.61,1190.06 700.09,1642.81 755.34,1661.56 928.66,1130.89 370.06,1130.89 "/>
   <polygon class="fil0" points="1571.96,800.6 1188.41,1083.43 1575.04,1360.87 1541.7,1408.75 1087.25,1084.51 1536.84,752.98 "/>
   <polygon class="fil0" points="1440.67,629.96 1057.12,912.79 906.34,461.43 850.75,479.13 1026.2,1009.1 1475.79,677.58 "/>
   <polygon class="fil0" points="896.92,1706.95 1056.01,1257.73 1433.88,1546.99 1470,1501.17 1027.64,1160.64 841.15,1687.19 "/>
  </g>
  <path class="fil1" d="M148.96 341.97c-43.42,502.2 172.6,554.51 178.76,629.78 0.11,-14.87 0.26,-29.75 0.37,-44.62 67.54,0.33 135.12,0.62 202.67,0.94 -93.92,-88.58 -153.77,-180.5 -123.92,-281.46 76.11,76.73 188.09,-0.8 304.79,94.5 -25.25,-77.63 -50.54,-155.26 -75.78,-232.89 16.03,-4.32 32.03,-8.6 48.06,-12.91 -191.21,-255.89 -477.53,70.23 -534.95,-153.34z"/>
  <path class="fil1" d="M9.95 1637.35c494.85,289.87 542.01,44.94 695.87,52.32 -14.15,-4.58 -52.19,-17.73 -66.34,-22.31 20.65,-64.32 29.67,-92.51 50.3,-156.79 -112.73,62.97 -192.83,54.72 -290.94,18.23 159.39,-74.33 76.58,-192.08 202.62,-274.66 -81.63,0.7 -163.27,1.44 -244.9,2.15 0.71,-16.59 1.45,-33.14 2.16,-49.72 -344.12,131.23 -41.51,502.45 -348.77,430.78z"/>
  <path class="fil1" d="M1260.49 2192.31c329.61,-381.37 241.04,-524.86 200.7,-640.39 -8.81,11.98 -17.64,23.95 -26.45,35.93 -54.53,-39.86 -109.11,-79.72 -163.63,-119.58 91.23,137.27 61,287.87 -22.4,352.13 -3.74,-139.86 -200.54,-170.74 -209.84,-381.44 -25.08,77.72 -74.02,230.11 -99.05,307.82 -15.52,-5.9 -7.75,-2.97 -23.27,-8.87 4.9,319.37 428.52,239.59 343.94,454.4z"/>
  <path class="fil1" d="M2163.85 1209.71c-283.32,-506.13 -482.32,-388.82 -538.54,-422.65 8.41,12.27 16.79,24.56 25.2,36.83 -55.62,38.33 -111.27,76.73 -166.86,115.04 158.3,-31.99 270.19,53.21 303.38,153.12 -183.59,-55.87 -170.01,113.75 -404.73,65.77 65.05,49.3 189.96,136.43 255.04,185.71 -10.69,12.7 -21.37,25.36 -32.06,38.06 421.28,5.99 333.28,-356.65 558.57,-171.88z"/>
  <path class="fil1" d="M1433.32 17.14c-532.41,121.77 -476.5,371.37 -545.53,402.02 14.07,-4.84 28.17,-9.57 42.25,-14.37 21.95,63.84 43.98,127.77 65.94,191.64 52.66,-117.88 129.65,-247.29 234.8,-252.4 -47.37,97.16 52.84,219.9 1.36,361.49 64.96,-49.43 129.91,-98.9 194.87,-148.34 9.36,13.71 18.68,27.4 28.04,41.12 195.56,-340.18 -213.85,-453.22 -21.73,-581.16z"/>
 </g>
</svg>
