<?xml version="1.0" encoding="UTF-8"?>
<!DOCTYPE svg PUBLIC "-//W3C//DTD SVG 1.1//EN" "http://www.w3.org/Graphics/SVG/1.1/DTD/svg11.dtd">
<!-- Creator: CorelDRAW -->
<svg xmlns="http://www.w3.org/2000/svg" xml:space="preserve" width="13mm" height="15mm" version="1.1" style="shape-rendering:geometricPrecision; text-rendering:geometricPrecision; image-rendering:optimizeQuality; fill-rule:evenodd; clip-rule:evenodd"
viewBox="0 0 1300 1500"
 xmlns:xlink="http://www.w3.org/1999/xlink"
 xmlns:xodm="http://www.corel.com/coreldraw/odm/2003">
 <defs>
  <style type="text/css">
   <![CDATA[
    .fil1 {fill:#84B2E0;fill-rule:nonzero}
    .fil0 {fill:white;fill-rule:nonzero}
   ]]>
  </style>
 </defs>
 <g id="Слой_x0020_1">
  <metadata id="CorelCorpID_0Corel-Layer"/>
  <g id="_1660083216240">
   <g>
    <path class="fil0" d="M47.33 526.12l0 454.82c0,73.82 39.42,142.08 103.45,179.12l393.96 227.54c64.03,37.04 142.88,37.04 206.64,0l393.96 -227.54c64.03,-37.04 103.45,-105.04 103.45,-179.12l0.01 -454.82c0,-73.82 -39.42,-142.08 -103.45,-179.12l-393.96 -227.54c-64.03,-37.04 -142.88,-37.04 -206.64,0l-393.96 227.54c-64.04,37.04 -103.46,105.04 -103.46,179.12z"/>
    <path class="fil1" d="M443.67 555.75c39.69,-39.69 87.31,-59.8 142.88,-59.8 55.56,0 103.19,20.11 142.88,59.8 39.69,39.69 59.27,87.31 59.27,142.88 0,55.56 -20.11,103.19 -59.8,142.88 -39.69,39.69 -86.78,59.27 -142.35,59.27 -55.56,0 -103.19,-19.58 -142.88,-59.27 -39.69,-39.69 -59.27,-87.31 -59.27,-142.88 0.01,-55.56 19.59,-103.19 59.27,-142.88zm210.61 74.62c-18.52,-19.05 -41.28,-28.58 -67.73,-28.58 -26.46,0 -49.21,9.53 -68.26,28.58 -18.52,18.52 -28.05,41.28 -28.05,68.26 0,26.46 9.53,49.21 28.05,68.26 19.05,18.52 41.8,28.05 68.26,28.05 26.46,0 49.21,-9.53 67.73,-28.05 19.05,-19.05 28.58,-41.8 28.58,-68.26 0,-26.99 -9.53,-49.74 -28.58,-68.26z"/>
    <path class="fil1" d="M832.08 911.62c-18.52,0 -30.96,-12.44 -30.96,-30.96 0,-89.43 104.51,-81.23 104.51,-128.06 0,-11.91 -6.61,-17.99 -19.05,-17.99 -11.11,0 -19.05,8.73 -19.05,20.9 0,16.93 -12.44,27.78 -30.96,27.78 -18.52,0 -30.96,-12.44 -30.96,-30.96 0,-22.23 7.67,-40.22 23.02,-53.45 15.35,-13.23 34.66,-20.11 57.68,-20.11 23.81,0 42.86,6.09 57.94,18.52 15.08,11.91 22.75,29.37 22.75,51.86 0,25.93 -9,46.3 -23.81,58.47 -7.14,6.09 -14.55,11.38 -21.96,15.61 -7.14,4.23 -15.08,9 -24.08,13.49 -9,4.49 -15.35,8.73 -20.11,12.44l62.2 0.02c18.52,0 30.96,12.44 30.96,30.96 0,18.52 -12.44,30.96 -30.96,30.96l-107.16 -0.01 0 0.53z"/>
   </g>
  </g>
 </g>
</svg>
