<?xml version="1.0" encoding="UTF-8"?>
<!DOCTYPE svg PUBLIC "-//W3C//DTD SVG 1.1//EN" "http://www.w3.org/Graphics/SVG/1.1/DTD/svg11.dtd">
<!-- Creator: CorelDRAW -->
<svg xmlns="http://www.w3.org/2000/svg" xml:space="preserve" width="13mm" height="15mm" version="1.1" style="shape-rendering:geometricPrecision; text-rendering:geometricPrecision; image-rendering:optimizeQuality; fill-rule:evenodd; clip-rule:evenodd"
viewBox="0 0 1300 1500"
 xmlns:xlink="http://www.w3.org/1999/xlink"
 xmlns:xodm="http://www.corel.com/coreldraw/odm/2003">
 <defs>
  <style type="text/css">
   <![CDATA[
    .fil1 {fill:#84B2E0;fill-rule:nonzero}
    .fil0 {fill:white;fill-rule:nonzero}
   ]]>
  </style>
 </defs>
 <g id="Слой_x0020_1">
  <metadata id="CorelCorpID_0Corel-Layer"/>
  <g id="_1696110549680">
   <path class="fil0" d="M47.34 526.12l0 454.82c0,73.82 39.42,142.08 103.45,179.12l393.96 227.54c64.03,37.04 142.88,37.04 206.64,0l393.96 -227.54c64.03,-37.04 103.45,-105.04 103.45,-179.12l0.01 -454.82c0,-73.82 -39.42,-142.08 -103.45,-179.12l-393.96 -227.54c-64.03,-37.04 -142.88,-37.04 -206.64,0l-393.96 227.54c-64.04,37.04 -103.46,105.3 -103.46,179.12z"/>
   <path class="fil1" d="M796.9 977.76l-118 0 0 -453.49 -69.59 0 0 453.5 -118.27 0c-12.96,0 -23.81,6.35 -29.9,17.73 -6.09,11.38 -5.82,23.55 1.06,34.66 4.76,7.67 13.76,16.67 31.22,16.67l301.89 0 2.91 0c18.26,-1.06 32.54,-15.35 33.07,-33.34 0.26,-9.53 -3.18,-18.79 -9.53,-25.4 -6.6,-6.62 -15.33,-10.33 -24.86,-10.33z"/>
   <path class="fil1" d="M483.9 589.09l-9 -21.7 -121.97 0 -80.17 191.56 -2.38 5.29c-2.65,6.35 -5.56,12.44 -7.14,19.05 -3.18,11.91 -1.06,23.02 1.06,35.19 14.82,81.76 90.22,136.26 171.71,124.09 41.54,-6.35 75.41,-26.72 100.81,-60.85 17.2,-23.28 26.99,-50.27 29.1,-80.43 0.79,-9.79 -0.53,-18.26 -3.97,-26.19 -26.46,-62.19 -52.39,-124.1 -78.05,-186.01zm-70.12 11.38l65.62 156.63 -131.23 0 65.61 -156.63zm1.33 274.37c-37.57,0.79 -64.56,-22.23 -76.46,-48.42l150.28 0c-10.32,22.49 -34.4,47.63 -73.82,48.42z"/>
   <path class="fil1" d="M1017.3 668.73c-7.67,-19.05 -15.61,-38.36 -23.55,-57.41 -16.4,-39.69 -33.07,-79.11 -49.74,-118.8l-6.09 -14.29 -121.97 0 -2.65 6.09c-27.78,66.41 -55.56,133.09 -83.61,199.5 -3.97,9.53 -5.56,18.79 -4.5,28.05 0.53,6.09 1.32,11.91 2.38,17.73 7.67,41.54 32.28,78.58 67.47,101.34 34.93,22.49 76.46,29.63 116.68,19.58 58.21,-14.29 97.37,-53.18 112.98,-112.45 1.32,-5.56 2.38,-11.11 3.18,-16.67l1.32 -20.9 -11.9 -31.77zm-140.23 -157.16l65.62 156.63 -131.24 0 65.62 -156.63zm60.85 247.38c-13.76,15.08 -30.96,23.81 -50.8,26.19 -41.01,4.76 -71.97,-19.05 -85.2,-47.63l150.56 0.01c-3.71,7.67 -8.47,14.82 -14.56,21.43z"/>
   <path class="fil1" d="M327.53 594.38l27.25 -5.03 0 0.26 102.39 -19.31 0 -0.26 159.01 -29.9 68.53 -12.96 159.01 -29.9 0 0.26 102.39 -19.31 -0.26 -0.26 26.99 -5.03c18.52,-3.44 30.43,-17.99 29.37,-35.72 -0.79,-17.2 -12.96,-30.16 -30.69,-32.54l-2.91 -1.32 -658.55 123.56 -4.76 1.06 -1.85 1.85c-15.61,8.73 -21.96,25.14 -16.14,42.07 5.82,16.4 22.49,25.66 40.22,22.48z"/>
  </g>
 </g>
</svg>
